<svg width="31" height="31" viewBox="0 0 31 31" fill="none" xmlns="http://www.w3.org/2000/svg"><path d="M15.262 0C6.832 0 0 6.832 0 15.262c0 8.424 6.832 15.256 15.256 15.256h.013c8.43 0 15.256-6.832 15.256-15.256C30.525 6.832 23.693 0 15.262 0z" fill="#8976FF"/><path d="M21.24 9.58c-.654-.537-1.421-.863-2.24-1.068a16.67 16.67 0 00-6.278-.369c-1.07.14-2.108.41-3.058.924-1.12.603-1.894 1.466-2.234 2.674a11.9 11.9 0 00-.402 2.613c-.07 1.31-.025 2.607.32 3.88.403 1.473 1.284 2.56 2.782 3.139.163.06.32.15.484.211.15.06.195.157.195.314-.006 1.02-.006 2.04-.006 3.102.396-.362.667-.634.868-.845.591-.64 1.151-1.177 1.768-1.786.308-.308.182-.296.667-.284.566.006 1.466.03 2.032-.012 1.082-.085 2.158-.217 3.202-.52 1.322-.38 2.385-1.061 2.926-2.347.145-.344.277-.682.371-1.044.516-2.046.447-4.098.013-6.144-.202-.954-.623-1.798-1.41-2.438zm-6.593 1.237c.012-.2.132-.271.327-.265 1.642.078 2.881.549 3.838 1.78.56.718.862 1.696.887 2.601 0 .133.006.266 0 .399-.006.15-.076.265-.252.265-.176.006-.264-.09-.276-.26a5.89 5.89 0 00-.447-1.937c-.516-1.2-1.498-1.847-2.768-2.16a6.44 6.44 0 00-1.02-.181c-.157-.013-.296-.043-.29-.242zm1.66 1.678a5.902 5.902 0 00-1.025-.254c-.17-.024-.29-.108-.258-.301.032-.175.151-.248.334-.236 1.145.109 2.044.507 2.661 1.467.29.447.46 1.074.434 1.55-.019.339-.069.423-.27.417-.29-.006-.252-.235-.27-.404a5.219 5.219 0 00-.17-.767c-.208-.73-.686-1.219-1.435-1.472zm.976 1.859c-.013.096-.013.157-.025.217-.032.127-.113.2-.252.2-.138.005-.214-.073-.252-.194-.025-.078-.03-.163-.05-.247-.088-.447-.352-.737-.818-.857-.056-.013-.113-.019-.17-.037-.144-.036-.327-.042-.333-.247 0-.169.132-.266.371-.284.164-.006.422.073.566.14.604.283.887.681.963 1.309zm2.422 4.683c-.32.694-.868 1.153-1.63 1.358-.276.073-.547.012-.798-.09-3.486-1.425-6.003-3.773-7.43-7.164a1.71 1.71 0 01-.152-.73c0-.876.8-1.678 1.674-1.727a.843.843 0 01.623.224 6.276 6.276 0 011.472 1.925c.195.392.113.67-.24.953a1.6 1.6 0 01-.175.127c-.472.332-.573.67-.353 1.183.372.851.97 1.521 1.775 2.016.308.18.616.362.969.459.32.09.578-.007.786-.248.019-.03.044-.06.063-.084.453-.598.931-.7 1.585-.314.554.332 1.083.712 1.586 1.116.333.278.421.604.245.996z" fill="#fff"/></svg>